<?xml version="1.0" encoding="UTF-8"?>
<svg width="32px" height="32px" viewBox="0 0 32 32" version="1.1" xmlns="http://www.w3.org/2000/svg" xmlns:xlink="http://www.w3.org/1999/xlink">
    <title>Group 38</title>
    <g id="Core" stroke="none" stroke-width="1" fill="none" fill-rule="evenodd">
        <g id="AOS-node" transform="translate(-16.000000, -39.000000)">
            <g id="Group-38" transform="translate(16.000000, 39.000000)">
                <rect id="Rectangle" x="0" y="0" width="32" height="32"></rect>
                <g id="Group-56" transform="translate(0.000000, 2.000000)">
                    <rect id="Rectangle" stroke="#489D9B" stroke-width="2" x="1" y="1" width="30" height="25" rx="6"></rect>
                    <path d="M7.899,17 L8.115,16.298 L10.275,16.298 L10.491,17 L12.552,17 L10.338,10.997 L8.052,10.997 L5.838,17 L7.899,17 Z M9.789,14.714 L8.601,14.714 L9.195,12.779 L9.789,14.714 Z M15.792,17.108 C16.728,17.108 17.508,16.82 18.132,16.244 C18.762,15.662 19.077,14.915 19.077,14.003 C19.077,13.091 18.7635,12.3455 18.1365,11.7665 C17.5095,11.1875 16.728,10.898 15.792,10.898 C14.856,10.898 14.0745,11.1875 13.4475,11.7665 C12.8205,12.3455 12.507,13.091 12.507,14.003 C12.507,14.915 12.8205,15.6605 13.4475,16.2395 C14.0745,16.8185 14.856,17.108 15.792,17.108 Z M15.792,15.506 C15.366,15.506 15.018,15.362 14.748,15.074 C14.484,14.786 14.352,14.429 14.352,14.003 C14.352,13.577 14.4855,13.22 14.7525,12.932 C15.0195,12.644 15.366,12.5 15.792,12.5 C16.218,12.5 16.5645,12.644 16.8315,12.932 C17.0985,13.22 17.232,13.577 17.232,14.003 C17.232,14.429 17.0985,14.786 16.8315,15.074 C16.5645,15.362 16.218,15.506 15.792,15.506 Z M22.281,17.108 C23.091,17.108 23.7255,16.925 24.1845,16.559 C24.6435,16.193 24.873,15.68 24.873,15.02 C24.873,14.672 24.7905,14.3705 24.6255,14.1155 C24.4605,13.8605 24.255,13.673 24.009,13.553 C23.763,13.433 23.4945,13.3295 23.2035,13.2425 C22.9125,13.1555 22.644,13.0955 22.398,13.0625 C22.152,13.0295 21.9465,12.983 21.7815,12.923 C21.6165,12.863 21.534,12.791 21.534,12.707 C21.534,12.527 21.687,12.437 21.993,12.437 C22.647,12.437 23.235,12.635 23.757,13.031 L23.757,13.031 L24.729,11.744 C24.045,11.186 23.196,10.907 22.182,10.907 C21.402,10.907 20.7915,11.102 20.3505,11.492 C19.9095,11.882 19.689,12.35 19.689,12.896 C19.689,13.334 19.8045,13.697 20.0355,13.985 C20.2665,14.273 20.5455,14.474 20.8725,14.588 C21.1995,14.702 21.5265,14.789 21.8535,14.849 C22.1805,14.909 22.4595,14.966 22.6905,15.02 C22.9215,15.074 23.037,15.152 23.037,15.254 C23.037,15.47 22.815,15.578 22.371,15.578 C21.621,15.578 20.976,15.32 20.436,14.804 L20.436,14.804 L19.491,16.154 C20.199,16.79 21.129,17.108 22.281,17.108 Z" id="AOS" fill="#489D9B" fill-rule="nonzero"></path>
                </g>
            </g>
        </g>
    </g>
</svg>