<?xml version="1.0" encoding="UTF-8"?>
<svg width="32px" height="32px" viewBox="0 0 32 32" version="1.1" xmlns="http://www.w3.org/2000/svg" xmlns:xlink="http://www.w3.org/1999/xlink">
    <title>Group 51</title>
    <g id="Core" stroke="none" stroke-width="1" fill="none" fill-rule="evenodd">
        <g id="Group-41" transform="translate(-16.000000, -37.000000)">
            <g id="Group-51" transform="translate(16.000000, 37.000000)">
                <rect id="Rectangle" x="0" y="0" width="32" height="32"></rect>
                <path d="M28,2 C30.209139,2 32,3.790861 32,6 L32,27 C32,29.209139 30.209139,31 28,31 L4,31 C1.790861,31 2.705415e-16,29.209139 0,27 L0,6 C-2.705415e-16,3.790861 1.790861,2 4,2 L28,2 Z M30,9 L2,9 L2,26 C2,27.5976809 3.24891996,28.9036609 4.82372721,28.9949073 L5,29 L27,29 C28.5976809,29 29.9036609,27.75108 29.9949073,26.1762728 L30,26 L30,9 Z M27,23 L27,26 L5,26 L5,23 L27,23 Z M27,18 L27,21 L16,21 L16,18 L27,18 Z M14,13 L14,21 L5,21 L5,13 L14,13 Z M27,13 L27,16 L16,16 L16,13 L27,13 Z M9.5,4 C8.67157288,4 8,4.67157288 8,5.5 C8,6.32842712 8.67157288,7 9.5,7 C10.3284271,7 11,6.32842712 11,5.5 C11,4.67157288 10.3284271,4 9.5,4 Z M4.5,4 C3.67157288,4 3,4.67157288 3,5.5 C3,6.32842712 3.67157288,7 4.5,7 C5.32842712,7 6,6.32842712 6,5.5 C6,4.67157288 5.32842712,4 4.5,4 Z" id="Combined-Shape" fill="#489D9B"></path>
            </g>
        </g>
    </g>
</svg>