<?xml version="1.0" encoding="UTF-8"?>
<svg width="32px" height="32px" viewBox="0 0 32 32" version="1.1" xmlns="http://www.w3.org/2000/svg" xmlns:xlink="http://www.w3.org/1999/xlink">
    <title>Group 3</title>
    <g id="Core" stroke="none" stroke-width="1" fill="none" fill-rule="evenodd">
        <g id="Group-42" transform="translate(-16.000000, -34.000000)">
            <g id="Group-3" transform="translate(16.000000, 34.000000)">
                <polygon id="Path-20" fill="#ED9438" points="12.742883 14.3224589 11.5803711 14.2552317 8.85410156 8 6.94892578 8.80057435 5.81275418 9.74173733 6.32060551 10.7835632 6.66170561 12.1560059 5.01269531 13.3566895 3.50090375 14.3224589 1.79434026 14 1.19311523 14.6044922 0.66764573 16.3031001 1.79434026 17.4969623 2.54400136 18.6526442 2.18001582 21.6721415 0 23.0829295 1.79434026 26.2647358 4.04925441 25.1888164 6.66170561 28.4922057 5.81275418 30.8465438 9.04524401 32 10.2256552 29.7004498 14.0192047 29.7004498 15.3077271 32 18.2970515 30.5724332 17.6749887 28.168786 20.5419679 25.1888164 22.6083296 26.2647358 24 23.0829295 20.7841797 21.4086111 17.150293 20 16.8134885 19.4407337 16.8134885 19.9012943 16.4337438 18.2044108 14.4036941 15.7850121"></polygon>
                <path d="M0.000289224323,16.3611255 C0.259781287,15.7082591 0.51285257,15.0527305 0.780442914,14.4031628 C1.11166261,13.5991897 2.07929151,13.2302486 2.89982091,13.5826958 C3.18146756,13.7036506 3.46346127,13.824316 3.75014042,13.9323072 C3.80312632,13.9522735 3.90996578,13.9338698 3.9401608,13.8939374 C4.51872514,13.128392 5.19736109,12.4650505 5.98173746,11.8745134 C5.85129729,11.5590471 5.72369151,11.2402821 5.58821884,10.9248737 C5.20893006,10.041788 5.59475531,9.10760042 6.48423579,8.74820847 C6.96781886,8.55282888 7.44654296,8.34546956 7.92821715,8.1452865 C8.82880385,7.77090541 9.73222495,8.13868897 10.1087372,9.03410159 C10.2984105,9.48516454 10.4868691,9.93669047 10.669601,10.3905892 C10.8088914,10.7366703 10.668849,11.0735497 10.3434138,11.1986134 C10.0567925,11.3087459 9.73610055,11.1508681 9.60161124,10.8310035 C9.41454095,10.3859594 9.22995799,9.93981562 9.04306123,9.4947136 C8.91019157,9.17826348 8.70605705,9.09023849 8.38634848,9.21987424 C7.89703877,9.41826323 7.40940656,9.62076121 6.92258418,9.82522688 C6.63416968,9.94635528 6.54462583,10.1700348 6.66395979,10.4615416 C6.84935258,10.9145144 7.0367121,11.3666769 7.22441868,11.8187237 C7.35590006,12.1354053 7.28550286,12.3880214 6.99928647,12.5831695 C6.04461482,13.2341261 5.24271146,14.0368839 4.59299794,14.9925424 C4.40419231,15.2702176 4.15655844,15.3472467 3.84431186,15.2205625 C3.40312908,15.0416188 2.96350811,14.8589135 2.52527541,14.6728514 C2.18306519,14.5275321 1.96134583,14.609191 1.81829548,14.9491955 C1.61606983,15.4300052 1.41540599,15.9115094 1.21838638,16.3945183 C1.09725924,16.6914652 1.19472783,16.9176911 1.49228182,17.0426392 C1.91911908,17.2218722 2.34595633,17.4010473 2.77458678,17.5759398 C3.16567591,17.7354959 3.28188624,17.9254933 3.20622516,18.3560113 C3.08145379,19.0660564 3.01886564,19.7801526 3.07046326,20.4991101 C3.09979061,20.9077521 3.16527099,21.3139055 3.21924025,21.7205798 C3.26511123,22.0663137 3.14473607,22.2800969 2.82039991,22.4143625 C2.37476307,22.5988041 1.92785365,22.780352 1.48458845,22.9702915 C1.18367947,23.0992328 1.09760631,23.3155046 1.22255121,23.6210746 C1.42246307,24.1100444 1.62619268,24.5974517 1.83321945,25.08347 C1.9627341,25.3875352 2.17247958,25.4687891 2.47992504,25.3426836 C2.93238757,25.1570267 3.38334613,24.9677238 3.83679203,24.7844975 C4.14955921,24.6581027 4.39424299,24.7260457 4.58345354,25.0057464 C5.22755611,25.9576431 6.02454266,26.7546715 6.97094249,27.4056281 C7.29811304,27.6306966 7.3542804,27.851714 7.20359453,28.2161409 C7.02415976,28.650247 6.84368378,29.0838902 6.66395979,29.5178806 C6.5314372,29.8377452 6.62121243,30.0596885 6.94051609,30.1925652 C7.41594303,30.3904333 7.89131213,30.5884751 8.3687058,30.7815397 C8.69819015,30.9148215 8.90573752,30.8259284 9.04202002,30.5022441 C9.22677652,30.0633924 9.41170655,29.6246564 9.59438063,29.1849366 C9.7304896,28.8573749 9.9512256,28.7284336 10.3098059,28.7968975 C11.0963804,28.947136 11.8883923,28.9952865 12.6854945,28.9291954 C13.0157887,28.9017635 13.3444054,28.8494463 13.6721544,28.7981707 C14.0460636,28.739661 14.2654113,28.8605579 14.4108333,29.2141625 C14.5918877,29.6543453 14.7758344,30.0933707 14.9612272,30.5317594 C15.0811974,30.8155112 15.2908851,30.9140113 15.5727631,30.8013902 C16.0874088,30.5957671 16.598931,30.3819838 17.1084286,30.1638023 C17.3597066,30.0562162 17.4489613,29.8248395 17.3453033,29.5639476 C17.1719422,29.1278159 16.9903672,28.6949251 16.8133619,28.2602402 C16.6416783,27.8385189 16.707448,27.6218999 17.0852906,27.3612973 C18.0091888,26.7241145 18.7844257,25.9401655 19.410712,25.0084085 C19.5959313,24.7328168 19.8429867,24.656135 20.1544813,24.781546 C20.6082164,24.9641935 21.0599269,25.1517602 21.5125052,25.3372435 C21.8231321,25.4645643 22.0360012,25.3865514 22.1650531,25.085727 C22.3758398,24.5941529 22.5830979,24.1010162 22.7856706,23.6060276 C22.9088802,23.3049717 22.8152294,23.0873688 22.5135684,22.9597586 C22.0690885,22.7717289 21.6224104,22.5888499 21.1772942,22.4024407 C20.8358938,22.2594362 20.6858442,21.9400346 20.8113676,21.6285037 C20.9344614,21.3229916 21.2691518,21.2005321 21.6159896,21.3409901 C22.0812937,21.5294828 22.5474655,21.7164129 23.0079685,21.9161909 C23.8525035,22.2825276 24.2168683,23.1834382 23.8689314,24.0326102 C23.6488317,24.5697304 23.4254927,25.1055196 23.199435,25.6401513 C22.8834285,26.3874088 21.9230302,26.7760845 21.1761373,26.4631647 C20.8694438,26.3346864 20.5633866,26.2045298 20.253396,26.084501 C20.2014513,26.064419 20.0990081,26.0684123 20.0736142,26.1019787 C19.4870094,26.8770152 18.8002752,27.5504266 18.0153203,28.1414267 C18.1516607,28.4718821 18.280192,28.7985758 18.4203501,29.1201187 C18.7782941,29.9413959 18.3967494,30.8930033 17.5681217,31.2375798 C17.092232,31.4354479 16.6178463,31.636962 16.141783,31.8345408 C15.999369,31.8936292 15.8537734,31.9450784 15.709624,32 C15.4876154,32 15.2656069,32 15.0436561,32 C15.0290792,31.9888305 15.016122,31.9718158 14.999694,31.9673596 C14.4587867,31.8192623 14.0920502,31.4789685 13.8828254,30.9616408 C13.7754075,30.696119 13.6599491,30.4337803 13.5556548,30.1670431 C13.5142379,30.0610775 13.4651276,30.0174412 13.3402405,30.034398 C12.4381499,30.1569732 11.5347866,30.1567417 10.6326381,30.0324882 C10.5284595,30.0181357 10.4822415,30.0475352 10.4446423,30.1442411 C10.3313821,30.4355743 10.2035449,30.721236 10.0886072,31.0119325 C9.94821767,31.3668683 9.70515355,31.6311747 9.37775162,31.8150954 C9.23857687,31.893282 9.08129668,31.9392911 8.93223047,32 C8.72329482,32 8.51435917,32 8.30542351,32 C8.18406499,31.9576369 8.06039267,31.9208875 7.941695,31.8720426 C7.45973159,31.6737693 6.98077611,31.4680883 6.49794503,31.2720143 C5.58104608,30.8996587 5.20302989,29.9900093 5.58781393,29.0727786 C5.69876038,28.8083564 5.80507924,28.5419086 5.91897578,28.2787596 C5.95958287,28.1849473 5.96739193,28.1274793 5.86801445,28.0514919 C5.14501149,27.4981672 4.49992556,26.8644568 3.95392788,26.1339246 C3.88526603,26.04208 3.8292722,26.0292322 3.72682894,26.075357 C3.44766962,26.2009995 3.1629572,26.3141993 2.88067426,26.432897 C2.0799278,26.7695449 1.121959,26.414667 0.797854218,25.644376 C0.520372403,24.9849121 0.26516086,24.3161305 0,23.6514579 C0,23.4816004 0,23.3117428 0,23.1419432 C0.162717604,22.4492021 0.6133291,22.0341363 1.26905849,21.8070422 C1.51339519,21.7224317 1.74859241,21.6113154 1.99015257,21.5113685 C1.84316877,20.5084277 1.84345799,19.5211705 1.98992119,18.5260425 C1.65841227,18.3872628 1.33604284,18.2486567 1.01078117,18.1170533 C0.61772531,17.9580759 0.32913728,17.6879243 0.146173973,17.3082767 C0.0850897959,17.1814767 0.0480112377,17.0430443 0,16.9099362 C0.000289224323,16.7269414 0.000289224323,16.5440624 0.000289224323,16.3611255 Z" id="Path" fill="#2B2B2B" fill-rule="nonzero"></path>
                <circle id="Oval" fill="#2B2B2B" cx="12" cy="20" r="6"></circle>
                <g id="Group" transform="translate(13.000000, 0.000000)" fill="#ED9438" fill-rule="nonzero">
                    <path d="M10.3321086,-2.39097631e-12 C10.3478482,0.0113512033 10.3621141,0.0278564664 10.3795633,0.0333786734 C11.0620865,0.250033262 11.4065903,0.732796869 11.4070619,1.47381569 C11.4071798,1.63291661 11.4177908,1.79263111 11.4075335,1.95093438 C11.3990447,2.0819334 11.4564031,2.12359538 11.5662859,2.16366206 C11.9604256,2.3073008 12.3513231,2.46100223 12.7396857,2.62077809 C12.9223128,2.69594146 13.1120729,2.8848623 13.2700589,2.85553324 C13.4316409,2.82552925 13.5613898,2.594701 13.6996276,2.44627635 C14.2414371,1.86466523 15.0691541,1.83533618 15.6302402,2.39129971 C15.9524609,2.71060599 16.2651907,3.04071125 16.5728508,3.37529564 C16.9429389,3.77774181 17.0604263,4.40960501 16.8012231,4.89402528 C16.6404075,5.19455606 16.3892215,5.44471203 16.1661547,5.70597378 C16.0929977,5.79169071 16.0783192,5.84488797 16.1243002,5.95367545 C16.340352,6.46484774 16.5588207,6.97620411 16.7425678,7.50032291 C16.8120109,7.69832471 16.8877617,7.75765776 17.0864232,7.75698282 C17.3817627,7.75593974 17.6905428,7.75955985 17.9697301,7.84539949 C18.4382647,7.98940638 18.6849115,8.38657578 18.8359414,8.8511161 L18.8359414,10.7211195 L18.8359414,10.7211195 C18.7182183,11.15946 18.5037582,11.5314727 18.0879248,11.7114353 C17.8795366,11.8016313 17.6413785,11.8281379 17.4135957,11.8553808 C17.2237178,11.8781446 17.0293006,11.860044 16.8702535,11.860044 C16.653966,12.3990727 16.4543023,12.916074 16.2392527,13.4260805 C16.0789676,13.8061924 16.0660576,13.806622 16.3563274,14.0948198 C16.7008312,14.4368898 16.9484802,14.8156519 16.9252539,15.343943 C16.9095142,15.7029478 16.7889615,16.0060556 16.5554016,16.2589114 C16.2558766,16.5831876 15.9491597,16.9005918 15.6380806,17.2129033 C15.0870159,17.7661057 14.262718,17.7525456 13.7212622,17.189526 C13.5713524,17.033677 13.4336452,16.7854845 13.261629,16.7549896 C13.0912635,16.7248016 12.8881218,16.9246441 12.6932331,17.0080294 C12.275926,17.1865194 11.8546693,17.3548854 11.4104221,17.5375477 C11.4104221,17.7332179 11.4088304,17.9601806 11.4107168,18.1871433 C11.4171424,18.9631361 10.861008,19.5910111 10.119417,19.6196652 C9.66780099,19.6370908 9.21459336,19.6369068 8.76297738,19.6202174 C8.00081277,19.5919928 7.44986604,18.9800709 7.45163454,18.1883705 C7.45210614,17.9738021 7.52319984,17.7076931 7.42734713,17.5595752 C7.33556198,17.4177772 7.06586571,17.4061806 6.8798195,17.323961 C6.53160182,17.1700755 6.1797882,17.0217122 5.84442163,16.8410133 C5.66250191,16.7429635 5.5404754,16.729342 5.40960639,16.9112681 C5.32277304,17.0318976 5.20846898,17.1321564 5.10112102,17.2355444 C4.53720528,17.7786841 3.72198568,17.7518094 3.18518694,17.1794019 C2.91596227,16.8923085 2.64007625,16.6119031 2.36554608,16.3302092 C1.79709119,15.7468187 1.78276634,14.8870724 2.33530473,14.2865017 C2.45945344,14.1515758 2.5987523,14.031069 2.71500171,13.8895778 C2.75160966,13.8449706 2.76169011,13.7428098 2.73970176,13.6852561 C2.5263617,13.1273291 2.29840203,12.5754766 2.08812736,12.0163838 C2.04639076,11.9053874 2.00347516,11.8666093 1.8923544,11.8683273 C1.66009139,11.8720088 1.42499877,11.8817033 1.19568325,11.8513925 C0.501841705,11.7596625 0.0200433217,11.1951089 0.00619007074,10.4678342 C-0.00223977985,10.0248305 -0.00182712982,9.58145866 0.00601322073,9.13845494 C0.0198075217,8.36074412 0.598932362,7.76397762 1.34329406,7.7490063 C1.56895468,7.74446582 1.851561,7.82067228 2.00400571,7.70771246 C2.15356187,7.59690018 2.16098957,7.2882088 2.24805873,7.07400853 C2.39543374,6.71132225 2.54835005,6.3504767 2.71576806,5.99754631 C2.77748871,5.8674063 2.78008251,5.79788785 2.67692001,5.68235101 C2.44872454,5.42673418 2.20095767,5.16982884 2.04839506,4.86598474 C1.79396684,4.35947564 1.9350342,3.74123389 2.32457583,3.33584254 C2.61614255,3.03236658 2.90983147,2.73109951 3.20004234,2.42621233 C3.74603728,1.85257773 4.57516909,1.84435578 5.12929913,2.41510655 C5.28463239,2.57512784 5.4252871,2.75061131 5.527978,2.86798889 C6.17748915,2.60807701 6.76575124,2.37510123 7.35088898,2.13365807 C7.39598573,2.11506664 7.44355839,2.03886018 7.44691854,1.98639922 C7.45935699,1.79330605 7.45357989,1.59892436 7.45487679,1.40503354 C7.45929804,0.731815144 7.84483106,0.213893485 8.47070326,0.0385327333 C8.49392956,0.0320288006 8.51397256,0.0131305811 8.53554826,-2.39097631e-12 L10.3321086,-2.39097631e-12 L10.3321086,-2.39097631e-12 Z M9.42981982,5.84414719 C7.32306458,5.84089971 5.61935051,7.60665608 5.61527591,9.79749967 C5.61127436,11.9728811 7.31787698,13.7635487 9.39804577,13.7664978 C11.5270252,13.7695005 13.220423,12.0161997 13.220423,9.80878951 C13.220423,7.599784 11.5450049,5.84740364 9.42981982,5.84414719 Z" id="Combined-Shape"></path>
                </g>
            </g>
        </g>
    </g>
</svg>