<?xml version="1.0" encoding="UTF-8"?>
<svg width="32px" height="32px" viewBox="0 0 32 32" version="1.1" xmlns="http://www.w3.org/2000/svg" xmlns:xlink="http://www.w3.org/1999/xlink">
    <title>Combined Shape</title>
    <g id="Core" stroke="none" stroke-width="1" fill="none" fill-rule="evenodd">
        <g id="Group-39" transform="translate(-16.000000, -36.000000)" fill="#A878FD">
            <path d="M48,64 C48,66.209139 46.209139,68 44,68 L20,68 C17.790861,68 16,66.209139 16,64 L16,40 C16,37.790861 17.790861,36 20,36 L44,36 C46.209139,36 48,37.790861 48,40 L48,64 Z M31,53 L18,53 L18,63 C18,64.5976809 19.24892,65.9036609 20.8237272,65.9949073 L21,66 L31,66 L31,53 Z M46,53 L33,53 L33,66 L43,66 C44.5976809,66 45.9036609,64.75108 45.9949073,63.1762728 L46,63 L46,53 Z M42.5,60.5 C43.0522847,60.5 43.5,60.9477153 43.5,61.5 C43.5,62.0522847 43.0522847,62.5 42.5,62.5 L36.5,62.5 C35.9477153,62.5 35.5,62.0522847 35.5,61.5 C35.5,60.9477153 35.9477153,60.5 36.5,60.5 L42.5,60.5 Z M27.5,58.5 C28.0522847,58.5 28.5,58.9477153 28.5,59.5 C28.5,60.0522847 28.0522847,60.5 27.5,60.5 L21.5,60.5 C20.9477153,60.5 20.5,60.0522847 20.5,59.5 C20.5,58.9477153 20.9477153,58.5 21.5,58.5 L27.5,58.5 Z M42.5,56.5 C43.0522847,56.5 43.5,56.9477153 43.5,57.5 C43.5,58.0522847 43.0522847,58.5 42.5,58.5 L36.5,58.5 C35.9477153,58.5 35.5,58.0522847 35.5,57.5 C35.5,56.9477153 35.9477153,56.5 36.5,56.5 L42.5,56.5 Z M31,38 L21,38 C19.4023191,38 18.0963391,39.24892 18.0050927,40.8237272 L18,41 L18,51 L31,51 L31,38 Z M43,38 L33,38 L33,51 L46,51 L46,41 C46,39.3431458 44.6568542,38 43,38 Z M24.5,40 C25.0522847,40 25.5,40.4477153 25.5,41 L25.5,43.5 L28,43.5 C28.5522847,43.5 29,43.9477153 29,44.5 C29,45.0522847 28.5522847,45.5 28,45.5 L25.5,45.5 L25.5,48 C25.5,48.5522847 25.0522847,49 24.5,49 C23.9477153,49 23.5,48.5522847 23.5,48 L23.5,45.5 L21,45.5 C20.4477153,45.5 20,45.0522847 20,44.5 C20,43.9477153 20.4477153,43.5 21,43.5 L23.5,43.5 L23.5,41 C23.5,40.4477153 23.9477153,40 24.5,40 Z M39.5,46.5 C40.0522847,46.5 40.5,46.9477153 40.5,47.5 C40.5,48.0522847 40.0522847,48.5 39.5,48.5 C38.9477153,48.5 38.5,48.0522847 38.5,47.5 C38.5,46.9477153 38.9477153,46.5 39.5,46.5 Z M42.5,43.5 C43.0522847,43.5 43.5,43.9477153 43.5,44.5 C43.5,45.0522847 43.0522847,45.5 42.5,45.5 L36.5,45.5 C35.9477153,45.5 35.5,45.0522847 35.5,44.5 C35.5,43.9477153 35.9477153,43.5 36.5,43.5 L42.5,43.5 Z M39.5,40.5 C40.0522847,40.5 40.5,40.9477153 40.5,41.5 C40.5,42.0522847 40.0522847,42.5 39.5,42.5 C38.9477153,42.5 38.5,42.0522847 38.5,41.5 C38.5,40.9477153 38.9477153,40.5 39.5,40.5 Z" id="Combined-Shape"></path>
        </g>
    </g>
</svg>