<?xml version="1.0" encoding="UTF-8"?>
<svg width="32px" height="32px" viewBox="0 0 32 32" version="1.1" xmlns="http://www.w3.org/2000/svg" xmlns:xlink="http://www.w3.org/1999/xlink">
    <title>Combined Shape</title>
    <g id="Core" stroke="none" stroke-width="1" fill="none" fill-rule="evenodd">
        <g id="Group-43" transform="translate(-16.000000, -34.000000)" fill="#469DFF">
            <path d="M24,34 L24,36 L28,36 L28,34 L30,34 L30,36 L34,36 L34,34 L36,34 L36,36 L40,36 L40,34 L42,34 L42,36 L44,36 C45.1045695,36 46,36.8954305 46,38 L46,40 L48,40 L48,42 L46,42 L46,46 L48,46 L48,48 L46,48 L46,52 L48,52 L48,54 L46,54 L46,58 L48,58 L48,60 L46,60 L46,64 L42,64 L42,66 L40,66 L40,64 L36,64 L36,66 L34,66 L34,64 L30,64 L30,66 L28,66 L28,64 L24,64 L24,66 L22,66 L22,64 L20,64 C18.8954305,64 18,63.1045695 18,62 L18,60 L16,60 L16,58 L18,58 L18,54 L16,54 L16,52 L18,52 L18,48 L16,48 L16,46 L18,46 L18,42 L16,42 L16,40 L18,40 L18,36 L22,36 L22,34 L24,34 Z M44,37 L19,37 L19,62 C19,62.5128358 19.3860402,62.9355072 19.8833789,62.9932723 L20,63 L45,63 L45,38 C45,37.4477153 44.5522847,37 44,37 Z M40,51 L40,58 L33,58 L33,51 L40,51 Z M31,51 L31,58 L24,58 L24,51 L31,51 Z M31,42 L31,49 L24,49 L24,42 L31,42 Z M40,42 L40,49 L33,49 L33,42 L40,42 Z" id="Combined-Shape"></path>
        </g>
    </g>
</svg>