<?xml version="1.0" encoding="UTF-8"?>
<svg width="32px" height="32px" viewBox="0 0 32 32" version="1.1" xmlns="http://www.w3.org/2000/svg" xmlns:xlink="http://www.w3.org/1999/xlink">
    <title>Group 50</title>
    <g id="Core" stroke="none" stroke-width="1" fill="none" fill-rule="evenodd">
        <g id="Group-38" transform="translate(-15.000000, -12.000000)" fill="#565656">
            <g id="Group-50" transform="translate(15.000000, 12.000000)">
                <polygon id="Path-16" points="12.1884766 13.3649902 13.8344727 11.9681345 9.89318848 8.26403809 9.22131348 3.76843262 3.79919434 0.155878591 0.50769043 3.46471648 3.79919434 9.0098877 8.45092773 9.69287109"></polygon>
                <path d="M22.293335,17.9870605 C20.9848105,18.7539088 20.0775432,19.411054 19.5715332,19.9584961 C19.0655232,20.5059382 18.4725056,21.4719213 17.7924805,22.8564453 L22.293335,30.1351266 C24.8874105,32.5983428 27.3455811,32.5983428 29.6678467,30.1351266 C33.1512451,26.4403024 32.1082764,22.8143259 29.229126,21.0425973 C27.3096924,19.861445 24.997762,18.8429327 22.293335,17.9870605 Z" id="Path-17"></path>
                <path d="M17.870778,7.9574589 L17.870778,10.2964075 L17.870778,10.2964075 C18.3408703,11.1284894 17.1676432,12.7424625 14.3510968,15.138327 C11.5345503,17.5341915 7.27093657,20.5450075 1.56025557,24.1707752 C-0.520085189,25.8824284 -0.520085189,27.7889157 1.56025557,29.8902368 C4.6807667,33.0422185 7.02934875,30.9966457 8.93538899,28.9258883 C9.92722638,27.8483379 12.3911692,23.271277 17.0838284,17.9665771 C17.9633924,16.9722959 19.5551076,15.7757832 21.858974,14.3770391 L24.0186935,14.3770391 C25.8618361,14.3770391 27.6306041,13.6500987 28.9410701,12.354007 L31.914455,9.41323644 L31.914455,9.41323644 C32.1951723,7.40967724 31.7850061,5.94601777 30.6839565,5.02225802 C29.6462061,6.11652292 28.1124727,7.58018239 26.0827563,9.41323644 C24.597642,9.22702786 23.6512805,8.93799758 23.2436718,8.54614561 C22.8360632,8.15429365 22.5648036,7.27277183 22.4298933,5.90158016 L27.4771729,1.22961426 C26.6175189,0.754098756 25.2063519,0.516341006 23.2436718,0.516341006 C22.0095238,1.22382316 20.9262177,2.03038913 19.9937535,2.93603891 C18.6365922,4.2541768 17.870778,6.06553548 17.870778,7.9574589 Z" id="Path-18"></path>
            </g>
        </g>
    </g>
</svg>