<?xml version="1.0" encoding="UTF-8"?>
<svg width="32px" height="32px" viewBox="0 0 32 32" version="1.1" xmlns="http://www.w3.org/2000/svg" xmlns:xlink="http://www.w3.org/1999/xlink">
    <title>Group 39</title>
    <g id="Core" stroke="none" stroke-width="1" fill="none" fill-rule="evenodd">
        <g id="Robot-Application-node" transform="translate(-18.000000, -38.000000)">
            <g id="Group-39" transform="translate(18.000000, 38.000000)">
                <rect id="Rectangle" x="0" y="0" width="32" height="32"></rect>
                <path d="M9.66142627,12.7780231 L17.872,27 L24,27 L24,30 L4,30 L4,27 L9.791,27 L2.57362397,14.4891475 C3.31551578,14.8175701 4.1364535,15 5,15 C6.88185337,15 8.56135859,14.1336446 9.66142627,12.7780231 Z M23.1855469,1 L30,5 L28.6965332,7.12158203 L24,4.37792969 L22,6.96 L22,10.389 L24.3922142,12.8053588 L28.0387951,10.0326141 L29.079052,12.8995405 L24.304643,16.2789843 L20.087,12 L16,12 L16,5 L19.863,5 L23.1855469,1 Z M5,5 C7.209139,5 9,6.790861 9,9 C9,11.209139 7.209139,13 5,13 C2.790861,13 1,11.209139 1,9 C1,6.790861 2.790861,5 5,5 Z M9.87303742,5.49872813 L14.5,5.5 L14.5,10.5 L10.8110401,10.4997425 C10.934394,10.0203901 11,9.51785661 11,9 C11,7.69325483 10.5822597,6.48407813 9.87303742,5.49872813 Z" id="robot" fill="#489D9B"></path>
            </g>
        </g>
    </g>
</svg>