<?xml version="1.0" encoding="UTF-8"?>
<svg width="32px" height="32px" viewBox="0 0 32 32" version="1.1" xmlns="http://www.w3.org/2000/svg" xmlns:xlink="http://www.w3.org/1999/xlink">
    <title>Group 53</title>
    <g id="Core" stroke="none" stroke-width="1" fill="none" fill-rule="evenodd">
        <g id="Group-46" transform="translate(-16.000000, -36.000000)">
            <g id="Group-53" transform="translate(16.000000, 36.000000)">
                <rect id="Rectangle" x="0" y="0" width="32" height="32"></rect>
                <path d="M26,23.7777778 C26.5522847,23.7777778 27,24.225493 27,24.7777778 L27,29 C27,29.5522847 26.5522847,30 26,30 L18.5714286,30 C18.0191438,30 17.5714286,29.5522847 17.5714286,29 L17.5714286,24.7777778 C17.5714286,24.225493 18.0191438,23.7777778 18.5714286,23.7777778 L26,23.7777778 Z M16.5714286,2 C17.1237133,2 17.5714286,2.44771525 17.5714286,3 L17.5714286,10.3333333 C17.5714286,10.8856181 17.1237133,11.3333333 16.5714286,11.3333333 L12.857,11.333 L12.8571429,28.4444444 L9.71428571,28.4444444 L9.714,11.333 L6,11.3333333 C5.44771525,11.3333333 5,10.8856181 5,10.3333333 L5,3 C5,2.44771525 5.44771525,2 6,2 L16.5714286,2 Z M26,14.4444444 C26.5522847,14.4444444 27,14.8921597 27,15.4444444 L27,19.6666667 C27,20.2189514 26.5522847,20.6666667 26,20.6666667 L18.5714286,20.6666667 C18.0191438,20.6666667 17.5714286,20.2189514 17.5714286,19.6666667 L17.5714286,15.4444444 C17.5714286,14.8921597 18.0191438,14.4444444 18.5714286,14.4444444 L26,14.4444444 Z M12.8571429,16 L17.5714286,16 L17.5714286,19.1111111 L12.8571429,19.1111111 L12.8571429,16 Z M12.8571429,25.3333333 L17.5714286,25.3333333 L17.5714286,28.4444444 L12.8571429,28.4444444 L12.8571429,25.3333333 Z" id="Combined-Shape" fill="#BFBFBF"></path>
            </g>
        </g>
    </g>
</svg>