<?xml version="1.0" encoding="UTF-8"?>
<svg width="28px" height="28px" viewBox="0 0 28 28" version="1.1" xmlns="http://www.w3.org/2000/svg" xmlns:xlink="http://www.w3.org/1999/xlink">
    <title>icon / 24-cont / info / globus-24</title>
    <defs>
        <path d="M15.9866667,2.66666667 C8.62666667,2.66666667 2.66666667,8.64 2.66666667,16 C2.66666667,23.36 8.62666667,29.3333333 15.9866667,29.3333333 C23.36,29.3333333 29.3333333,23.36 29.3333333,16 C29.3333333,8.64 23.36,2.66666667 15.9866667,2.66666667 Z M25.2266667,10.6666667 L21.2933333,10.6666667 C20.8666667,9 20.2533333,7.4 19.4533333,5.92 C21.9066667,6.76 23.9466667,8.46666667 25.2266667,10.6666667 Z M16,5.38666667 C17.1066667,6.98666667 17.9733333,8.76 18.5466667,10.6666667 L13.4533333,10.6666667 C14.0266667,8.76 14.8933333,6.98666667 16,5.38666667 Z M5.68,18.6666667 C5.46666667,17.8133333 5.33333333,16.92 5.33333333,16 C5.33333333,15.08 5.46666667,14.1866667 5.68,13.3333333 L10.1866667,13.3333333 C10.08,14.2133333 10,15.0933333 10,16 C10,16.9066667 10.08,17.7866667 10.1866667,18.6666667 L5.68,18.6666667 Z M6.77333333,21.3333333 L10.7066667,21.3333333 C11.1333333,23 11.7466667,24.6 12.5466667,26.08 C10.0933333,25.24 8.05333333,23.5466667 6.77333333,21.3333333 L6.77333333,21.3333333 Z M10.7066667,10.6666667 L6.77333333,10.6666667 C8.05333333,8.45333333 10.0933333,6.76 12.5466667,5.92 C11.7466667,7.4 11.1333333,9 10.7066667,10.6666667 L10.7066667,10.6666667 Z M16,26.6133333 C14.8933333,25.0133333 14.0266667,23.24 13.4533333,21.3333333 L18.5466667,21.3333333 C17.9733333,23.24 17.1066667,25.0133333 16,26.6133333 Z M19.12,18.6666667 L12.88,18.6666667 C12.76,17.7866667 12.6666667,16.9066667 12.6666667,16 C12.6666667,15.0933333 12.76,14.2 12.88,13.3333333 L19.12,13.3333333 C19.24,14.2 19.3333333,15.0933333 19.3333333,16 C19.3333333,16.9066667 19.24,17.7866667 19.12,18.6666667 Z M19.4533333,26.08 C20.2533333,24.6 20.8666667,23 21.2933333,21.3333333 L25.2266667,21.3333333 C23.9466667,23.5333333 21.9066667,25.24 19.4533333,26.08 L19.4533333,26.08 Z M21.8133333,18.6666667 C21.92,17.7866667 22,16.9066667 22,16 C22,15.0933333 21.92,14.2133333 21.8133333,13.3333333 L26.32,13.3333333 C26.5333333,14.1866667 26.6666667,15.08 26.6666667,16 C26.6666667,16.92 26.5333333,17.8133333 26.32,18.6666667 L21.8133333,18.6666667 Z" id="path-1"></path>
    </defs>
    <g id="Core" stroke="none" stroke-width="1" fill="none" fill-rule="evenodd">
        <g id="Group-38" transform="translate(-18.000000, -14.000000)">
            <g id="icon-/-24-cont-/-info-/-globus-24" transform="translate(16.000000, 12.000000)">
                <mask id="mask-2" fill="white">
                    <use xlink:href="#path-1"></use>
                </mask>
                <use id="Shape" fill="#7E7E7E" fill-rule="nonzero" xlink:href="#path-1"></use>
                <g id="Group" mask="url(#mask-2)" fill="#7E7E7E">
                    <g id="Colors-/-Dark-Theme-/-Grayscale-/-Filled-/-$base-gray">
                        <rect id="Dark-Theme-/-Grayscale-/-Filled-/-$base-gray" x="0" y="0" width="32" height="32"></rect>
                    </g>
                </g>
            </g>
        </g>
    </g>
</svg>