<?xml version="1.0" encoding="UTF-8"?>
<svg width="24px" height="24px" viewBox="0 0 24 24" version="1.1" xmlns="http://www.w3.org/2000/svg" xmlns:xlink="http://www.w3.org/1999/xlink">
    <title>client</title>
    <g id="Page-1" stroke="none" stroke-width="1" fill="none" fill-rule="evenodd">
        <g id="Artboard" transform="translate(-194.000000, -111.000000)">
            <g id="client" transform="translate(194.000000, 111.000000)">
                <rect id="Rectangle" x="0" y="0" width="24" height="24"></rect>
                <path d="M12,19 C12.5522847,19 13,19.4477153 13,20 L17.5,20 C17.7761424,20 18,20.2238576 18,20.5 L18,21.5 C18,21.7761424 17.7761424,22 17.5,22 L6.5,22 C6.22385763,22 6,21.7761424 6,21.5 L6,20.5 C6,20.2238576 6.22385763,20 6.5,20 L11,20 C11,19.4477153 11.4477153,19 12,19 Z M21,4 C21.5522847,4 22,4.44771525 22,5 L22,17 C22,17.5522847 21.5522847,18 21,18 L3,18 C2.44771525,18 2,17.5522847 2,17 L2,5 C2,4.44771525 2.44771525,4 3,4 L21,4 Z M19.5,6 L4.5,6 C4.25454011,6 4.05039163,6.17687516 4.00805567,6.41012437 L4,6.5 L4,15.5 C4,15.7454599 4.17687516,15.9496084 4.41012437,15.9919443 L4.5,16 L19.5,16 C19.7454599,16 19.9496084,15.8231248 19.9919443,15.5898756 L20,15.5 L20,6.5 C20,6.22385763 19.7761424,6 19.5,6 Z" id="Combined-Shape" fill="#dcbc65"></path>
            </g>
        </g>
    </g>
</svg>
