<?xml version="1.0" encoding="UTF-8"?>
<svg width="16px" height="16px" viewBox="0 0 16 16" version="1.1" xmlns="http://www.w3.org/2000/svg" xmlns:xlink="http://www.w3.org/1999/xlink">
    <title>date-time-ic</title>
    <defs>
        <path d="M7.33333333,7.33333333 L4.66666667,7.33333333 L4.66666667,10 L7.33333333,10 L7.33333333,7.33333333 Z M12.6666667,2.66666667 L12,2.66666667 L12,1.33333333 L10.6666667,1.33333333 L10.6666667,2.66666667 L5.33333333,2.66666667 L5.33333333,1.33333333 L4,1.33333333 L4,2.66666667 L3.33333333,2.66666667 C2.59333333,2.66666667 2.00666667,3.26666667 2.00666667,4 L2,13.3333333 C2,14.0666667 2.59333333,14.6666667 3.33333333,14.6666667 L12.6666667,14.6666667 C13.4,14.6666667 14,14.0666667 14,13.3333333 L14,4 C14,3.26666667 13.4,2.66666667 12.6666667,2.66666667 Z M12.6666667,13.3333333 L3.33333333,13.3333333 L3.33333333,6 L12.6666667,6 L12.6666667,13.3333333 Z" id="path-1"></path>
    </defs>
    <g id="Core" stroke="none" stroke-width="1" fill="none" fill-rule="evenodd">
        <g id="23-Core-/-02_0N_Creating-custom-field" transform="translate(-180.000000, -438.000000)">
            <g id="Group-26" transform="translate(164.000000, 384.000000)">
                <g id="date-time-ic" transform="translate(16.000000, 54.000000)">
                    <rect id="Rectangle" x="0" y="0" width="16" height="16"></rect>
                    <g id="date-time-ic">
                        <mask id="mask-2" fill="white">
                            <use xlink:href="#path-1"></use>
                        </mask>
                        <use id="Shape" fill="#000000" fill-rule="nonzero" xlink:href="#path-1"></use>
                        <g id="Group" mask="url(#mask-2)" fill="#7E7E7E">
                            <g id="Colors-/-Dark-Theme-/-Grayscale-/-Filled-/-$base-gray">
                                <rect id="Dark-Theme-/-Grayscale-/-Filled-/-$base-gray" x="0" y="0" width="16" height="16"></rect>
                            </g>
                        </g>
                    </g>
                </g>
            </g>
        </g>
    </g>
</svg>