<?xml version="1.0" encoding="UTF-8"?>
<svg width="16px" height="16px" viewBox="0 0 16 16" version="1.1" xmlns="http://www.w3.org/2000/svg" xmlns:xlink="http://www.w3.org/1999/xlink">
    <title>integer-ic</title>
    <g id="Core" stroke="none" stroke-width="1" fill="none" fill-rule="evenodd">
        <g id="23-Core-/-02_0N_Creating-custom-field" transform="translate(-180.000000, -474.000000)">
            <g id="Group-26" transform="translate(164.000000, 384.000000)">
                <g id="integer-ic" transform="translate(16.000000, 90.000000)">
                    <rect id="Rectangle" x="0" y="0" width="16" height="16"></rect>
                    <path d="M5.35839844,13 L5.94433594,10.1069336 L8.20751953,10.1069336 L7.62158203,13 L8.88134766,13 L9.45996094,10.1069336 L11.3349609,10.1069336 L11.5693359,8.86914062 L9.70898438,8.86914062 L10.2070312,6.44482422 L12.0161133,6.44482422 L12.2504883,5.21435547 L10.4633789,5.21435547 L11.0273438,2.43115234 L9.77490234,2.43115234 L9.19628906,5.21435547 L6.94775391,5.21435547 L7.50439453,2.43115234 L6.25927734,2.43115234 L5.68066406,5.21435547 L3.91552734,5.21435547 L3.66650391,6.44482422 L5.43164062,6.44482422 L4.94824219,8.86914062 L3.24169922,8.86914062 L3,10.1069336 L4.69189453,10.1069336 L4.11328125,13 L5.35839844,13 Z M8.48583984,8.92773438 L6.14208984,8.92773438 L6.65478516,6.39355469 L9.00585938,6.39355469 L8.48583984,8.92773438 Z" id="#" fill="#7E7E7E" fill-rule="nonzero"></path>
                </g>
            </g>
        </g>
    </g>
</svg>