<?xml version="1.0" encoding="UTF-8"?>
<svg width="16px" height="16px" viewBox="0 0 16 16" version="1.1" xmlns="http://www.w3.org/2000/svg" xmlns:xlink="http://www.w3.org/1999/xlink">
    <title>object-ic</title>
    <g id="Core" stroke="none" stroke-width="1" fill="none" fill-rule="evenodd">
        <g id="23-Core-/-02_0N_Creating-custom-field" transform="translate(-180.000000, -582.000000)">
            <g id="Group-26" transform="translate(164.000000, 384.000000)">
                <g id="object-ic" transform="translate(16.000000, 198.000000)">
                    <rect id="Rectangle" x="0" y="0" width="16" height="16"></rect>
                    <path d="M5,14 L5,12.6113537 L4.75989086,12.6113537 C4.07230559,12.6113537 3.81036835,12.2576419 3.81036835,11.3340611 L3.81036835,9.71615721 C3.81036835,8.77292576 3.30832196,8.20960699 2.38062756,8.08515284 L2.38062756,7.87554585 C3.30832196,7.75764192 3.81036835,7.19432314 3.81036835,6.24454148 L3.81036835,4.66593886 C3.81036835,3.74235808 4.06684857,3.38864629 4.75989086,3.38864629 L5,3.38864629 L5,2 L4.59618008,2 C2.97544338,2 2.28785812,2.73362445 2.28785812,4.44323144 L2.28785812,5.73362445 C2.28785812,6.70305677 1.93315143,7.06331878 1,7.069869 L1,8.89082969 C1.93860846,8.90393013 2.28785812,9.26419214 2.28785812,10.2270742 L2.28785812,11.5240175 C2.28785812,13.2532751 2.97544338,14 4.59618008,14 L5,14 Z" id="Path" fill="#7E7E7E" fill-rule="nonzero"></path>
                    <path d="M11.4145621,14 C13.0352988,14 13.717427,13.2663755 13.717427,11.5567686 L13.717427,10.2598253 C13.717427,9.29694323 14.0721337,8.930131 15.0107422,8.92358079 L15.0107422,7.10262009 C14.0721337,7.09606987 13.717427,6.72925764 13.717427,5.76637555 L13.717427,4.46943231 C13.717427,2.74672489 13.0298418,2 11.4145621,2 L11.0107422,2 L11.0107422,3.38864629 L11.2508513,3.38864629 C11.9384366,3.38864629 12.2003738,3.73580786 12.2003738,4.65938865 L12.2003738,6.27729258 C12.2003738,7.22707424 12.7024202,7.79039301 13.6301146,7.90829694 L13.6301146,8.11790393 C12.7024202,8.24235808 12.2003738,8.80567686 12.2003738,9.7489083 L12.2003738,11.3340611 C12.2003738,12.2576419 11.9384366,12.6048035 11.2508513,12.6048035 L11.0107422,12.6048035 L11.0107422,14 L11.4145621,14 Z" id="Path" fill="#7E7E7E" fill-rule="nonzero"></path>
                </g>
            </g>
        </g>
    </g>
</svg>