<?xml version="1.0" encoding="UTF-8"?>
<svg width="24px" height="24px" viewBox="0 0 24 24" version="1.1" xmlns="http://www.w3.org/2000/svg" xmlns:xlink="http://www.w3.org/1999/xlink">
    <title>server</title>
    <g id="Page-1" stroke="none" stroke-width="1" fill="none" fill-rule="evenodd">
        <g id="Artboard" transform="translate(-222.000000, -111.000000)">
            <g id="server" transform="translate(222.000000, 111.000000)">
                <rect id="Rectangle" x="0" y="0" width="24" height="24"></rect>
                <path d="M12,19 C12.5522847,19 13,19.4477153 13,20 L21.5,20 C21.7761424,20 22,20.2238576 22,20.5 L22,21.5 C22,21.7761424 21.7761424,22 21.5,22 L2.5,22 C2.22385763,22 2,21.7761424 2,21.5 L2,20.5 C2,20.2238576 2.22385763,20 2.5,20 L11,20 C11,19.4477153 11.4477153,19 12,19 Z M21,11 C21.5522847,11 22,11.4477153 22,12 L22,17 C22,17.5522847 21.5522847,18 21,18 L3,18 C2.44771525,18 2,17.5522847 2,17 L2,12 C2,11.4477153 2.44771525,11 3,11 L21,11 Z M17.5,13 C16.6715729,13 16,13.6715729 16,14.5 C16,15.3284271 16.6715729,16 17.5,16 C18.3284271,16 19,15.3284271 19,14.5 C19,13.6715729 18.3284271,13 17.5,13 Z M13.5,14 L5.5,14 C5.22385763,14 5,14.2238576 5,14.5 C5,14.7454599 5.17687516,14.9496084 5.41012437,14.9919443 L5.5,15 L13.5,15 C13.7761424,15 14,14.7761424 14,14.5 C14,14.2238576 13.7761424,14 13.5,14 Z M21,3 C21.5522847,3 22,3.44771525 22,4 L22,9 C22,9.55228475 21.5522847,10 21,10 L3,10 C2.44771525,10 2,9.55228475 2,9 L2,4 C2,3.44771525 2.44771525,3 3,3 L21,3 Z M17.5,5 C16.6715729,5 16,5.67157288 16,6.5 C16,7.32842712 16.6715729,8 17.5,8 C18.3284271,8 19,7.32842712 19,6.5 C19,5.67157288 18.3284271,5 17.5,5 Z M13.5,6 L5.5,6 C5.22385763,6 5,6.22385763 5,6.5 C5,6.74545989 5.17687516,6.94960837 5.41012437,6.99194433 L5.5,7 L13.5,7 C13.7761424,7 14,6.77614237 14,6.5 C14,6.22385763 13.7761424,6 13.5,6 Z" id="Combined-Shape" fill="#7E7E7E"></path>
            </g>
        </g>
    </g>
</svg>