<?xml version="1.0" encoding="UTF-8"?>
<svg width="16px" height="16px" viewBox="0 0 16 16" version="1.1" xmlns="http://www.w3.org/2000/svg" xmlns:xlink="http://www.w3.org/1999/xlink">
    <title>string-ic</title>
    <g id="Core" stroke="none" stroke-width="1" fill="none" fill-rule="evenodd">
        <g id="23-Core-/-02_0N_Creating-custom-field" transform="translate(-180.000000, -402.000000)">
            <g id="Group-26" transform="translate(164.000000, 384.000000)">
                <g id="string-ic" transform="translate(16.000000, 18.000000)">
                    <rect id="Rectangle" x="0" y="0" width="16" height="16"></rect>
                    <path d="M1.1299435,12 L1.46892655,10.6146927 L3.53107345,10.6146927 L3.8700565,12 L5,12 L3.12617702,5 L1.87382298,5 L0,12 L1.1299435,12 Z M3.5,10 L1.5,10 L2.5,6 L3.5,10 Z M8.3908046,12 C8.91187739,12 9.31034483,11.8268366 9.5862069,11.4805097 C9.86206897,11.1341829 10,10.6776612 10,10.1109445 C10,9.67716142 9.89731801,9.29410295 9.69195402,8.96176912 C9.48659004,8.62943528 9.23371648,8.43878061 8.93333333,8.3898051 C9.21532567,8.29885057 9.4467433,8.1151924 9.62758621,7.83883058 C9.80842912,7.56246877 9.89885057,7.21089455 9.89885057,6.78410795 C9.89885057,6.26636682 9.76091954,5.83958021 9.48505747,5.50374813 C9.2091954,5.16791604 8.81992337,5 8.31724138,5 L8.31724138,5 L6,5 L6,12 L8.3908046,12 Z M8.1758794,8 L7,8 L7,6 L8.1758794,6 C8.4438861,6 8.64824121,6.09208103 8.78894472,6.27624309 C8.92964824,6.46040516 9,6.70349908 9,7.00552486 C9,7.30755064 8.93132328,7.54880295 8.79396985,7.72928177 C8.65661642,7.90976059 8.45058626,8 8.1758794,8 L8.1758794,8 Z M8.15238095,11 L7,11 L7,9 L8.15238095,9 C8.42539683,9 8.63492063,9.09326425 8.78095238,9.27979275 C8.92698413,9.46632124 9,9.70466321 9,9.99481865 C9,10.3126079 8.92857143,10.5595855 8.78571429,10.7357513 C8.64285714,10.9119171 8.43174603,11 8.15238095,11 L8.15238095,11 Z M13.8099174,12 C14.8016529,12 15.5316804,11.4724638 16,10.4173913 L16,10.4173913 L15.0495868,10.0014493 C14.9325069,10.2990338 14.7689394,10.5391304 14.5588843,10.7217391 C14.3488292,10.9043478 14.0991736,10.9956522 13.8099174,10.9956522 C13.3140496,10.9956522 12.9163223,10.7623188 12.6167355,10.2956522 C12.3171488,9.82898551 12.1673554,9.23043478 12.1673554,8.5 C12.1673554,7.76280193 12.3171488,7.16086957 12.6167355,6.6942029 C12.9163223,6.22753623 13.3140496,5.9942029 13.8099174,5.9942029 C14.3608815,5.9942029 14.7706612,6.29855072 15.0392562,6.90724638 L15.0392562,6.90724638 L15.9896694,6.49130435 C15.5075758,5.49710145 14.7809917,5 13.8099174,5 C12.9559229,5 12.2741047,5.32463768 11.7644628,5.97391304 C11.2548209,6.62318841 11,7.46521739 11,8.5 C11,9.52801932 11.2548209,10.3683575 11.7644628,11.0210145 C12.2741047,11.6736715 12.9559229,12 13.8099174,12 Z" id="ABC" fill="#7E7E7E" fill-rule="nonzero"></path>
                </g>
            </g>
        </g>
    </g>
</svg>